<?xml version="1.0" encoding="UTF-8"?>

<!--
  - Copyright 2021 R3BL LLC. All rights reserved.
  -
  - Licensed under the Apache License, Version 2.0 (the "License");
  - you may not use this file except in compliance with the License.
  - You may obtain a copy of the License at
  -
  -     http://www.apache.org/licenses/LICENSE-2.0
  -
  - Unless required by applicable law or agreed to in writing, software
  - distributed under the License is distributed on an "AS IS" BASIS,
  - WITHOUT WARRANTIES OR CONDITIONS OF ANY KIND, either express or implied.
  - See the License for the specific language governing permissions and
  - limitations under the License.
  -->

<svg width="128px" height="128px" viewBox="0 0 128 128" version="1.1"
  xmlns="http://www.w3.org/2000/svg">
  <!-- Generator: Sketch 54.1 (76490) - https://sketchapp.com -->
  <title>icon</title>
  <desc>Created with Sketch.</desc>
  <g id="Page-1" stroke="none" stroke-width="1" fill="none" fill-rule="evenodd">
    <g id="icon">
      <g
        transform="translate(64.000000, 64.000000) rotate(-315.000000) translate(-64.000000, -64.000000) ">
        <circle id="Oval" fill="#FFFFFF" cx="64" cy="64" r="64"></circle>
        <path
          d="M113.314731,23.2759459 L92.7043606,44.5688914 L109.059916,44.3034111 L109.292212,58.5232018 L68.6616939,59.1845323 L68.0003606,18.5541885 L82.2225828,18.3242635 L82.4880643,34.6773784 L103.098435,13.3868033 C92.002731,4.79898834 78.0436198,-0.235656681 62.9585828,0.00849041778 C27.6732495,0.584487941 -0.567343117,29.758881 0.00865688338,65.0416923 C0.252805032,80.1290348 5.73784207,93.9150496 14.6836198,104.726262 L35.2939902,83.4333169 L18.9384347,83.6987973 L18.7085087,69.4790066 L59.3366569,68.8176761 L59.9979902,109.44802 L45.7781384,109.677945 L45.5102865,93.32483 L24.8999161,114.615405 C35.9956198,123.20322 49.954731,128.237865 65.039768,127.991348 C100.325101,127.41772 128.565694,98.2433273 127.989694,62.9581457 C127.745546,47.8731735 122.260509,34.0847884 113.314731,23.2759459"
          id="Path" fill="#1B345B" fill-rule="nonzero"></path>
      </g>
    </g>
  </g>
</svg>